<svg width="1024" height="1024" viewBox="0 0 1024 1024" fill="none" xmlns="http://www.w3.org/2000/svg">
<rect width="1024" height="1024" fill="#171717"/>
<path d="M237.4 512.8C237.4 458.4 249.667 409.6 274.2 366.4C298.733 322.667 332.067 288.533 374.2 264C416.867 239.467 464.067 227.2 515.8 227.2C576.6 227.2 629.667 241.867 675 271.2C720.333 300.533 753.4 342.133 774.2 396H687C671.533 362.4 649.133 336.533 619.8 318.4C591 300.267 556.333 291.2 515.8 291.2C476.867 291.2 441.933 300.267 411 318.4C380.067 336.533 355.8 362.4 338.2 396C320.6 429.067 311.8 468 311.8 512.8C311.8 557.067 320.6 596 338.2 629.6C355.8 662.667 380.067 688.267 411 706.4C441.933 724.533 476.867 733.6 515.8 733.6C556.333 733.6 591 724.8 619.8 707.2C649.133 689.067 671.533 663.2 687 629.6H774.2C753.4 682.933 720.333 724.267 675 753.6C629.667 782.4 576.6 796.8 515.8 796.8C464.067 796.8 416.867 784.8 374.2 760.8C332.067 736.267 298.733 702.4 274.2 659.2C249.667 616 237.4 567.2 237.4 512.8Z" fill="white"/>
</svg>
